<mxfile host="app.diagrams.net" modified="2023-09-18T00:25:33.024Z" agent="Mozilla/5.0 (Windows NT 10.0; Win64; x64) AppleWebKit/537.36 (KHTML, like Gecko) Chrome/116.0.0.0 Safari/537.36" etag="2zrMoZFx4kB141I0Mxgi" version="21.6.1" type="device">
  <diagram name="Page-1" id="3J90UnBANE-oeZSDJhiZ">
    <mxGraphModel dx="1050" dy="1642" grid="1" gridSize="10" guides="1" tooltips="1" connect="1" arrows="1" fold="1" page="1" pageScale="1" pageWidth="850" pageHeight="1100" math="0" shadow="0">
      <root>
        <mxCell id="0" />
        <mxCell id="1" parent="0" />
        <mxCell id="g-UJCjVUYvoIg5_bGZy7-4" value="&lt;font style=&quot;font-size: 36px;&quot;&gt;Tool Side&lt;/font&gt;" style="text;html=1;strokeColor=none;fillColor=none;align=center;verticalAlign=middle;whiteSpace=wrap;rounded=0;" vertex="1" parent="1">
          <mxGeometry x="20" y="-210" width="260" height="120" as="geometry" />
        </mxCell>
        <mxCell id="g-UJCjVUYvoIg5_bGZy7-11" value="" style="edgeStyle=orthogonalEdgeStyle;rounded=0;orthogonalLoop=1;jettySize=auto;html=1;" edge="1" parent="1" source="g-UJCjVUYvoIg5_bGZy7-5" target="g-UJCjVUYvoIg5_bGZy7-10">
          <mxGeometry relative="1" as="geometry" />
        </mxCell>
        <mxCell id="g-UJCjVUYvoIg5_bGZy7-5" value="Send Dummy Byte&lt;br&gt;=&lt;br&gt;0xAA" style="rounded=0;whiteSpace=wrap;html=1;" vertex="1" parent="1">
          <mxGeometry x="100" y="-10" width="120" height="60" as="geometry" />
        </mxCell>
        <mxCell id="g-UJCjVUYvoIg5_bGZy7-13" value="" style="edgeStyle=orthogonalEdgeStyle;rounded=0;orthogonalLoop=1;jettySize=auto;html=1;exitX=1;exitY=0.5;exitDx=0;exitDy=0;" edge="1" parent="1" source="g-UJCjVUYvoIg5_bGZy7-10">
          <mxGeometry relative="1" as="geometry">
            <mxPoint x="160" y="100" as="targetPoint" />
            <Array as="points">
              <mxPoint x="230" y="185" />
              <mxPoint x="230" y="100" />
              <mxPoint x="160" y="100" />
            </Array>
          </mxGeometry>
        </mxCell>
        <mxCell id="g-UJCjVUYvoIg5_bGZy7-14" value="NO&lt;br&gt;" style="edgeLabel;html=1;align=center;verticalAlign=middle;resizable=0;points=[];" vertex="1" connectable="0" parent="g-UJCjVUYvoIg5_bGZy7-13">
          <mxGeometry x="0.1597" y="-2" relative="1" as="geometry">
            <mxPoint x="-7" y="-17" as="offset" />
          </mxGeometry>
        </mxCell>
        <mxCell id="g-UJCjVUYvoIg5_bGZy7-16" value="" style="edgeStyle=orthogonalEdgeStyle;rounded=0;orthogonalLoop=1;jettySize=auto;html=1;" edge="1" parent="1" source="g-UJCjVUYvoIg5_bGZy7-10" target="g-UJCjVUYvoIg5_bGZy7-15">
          <mxGeometry relative="1" as="geometry" />
        </mxCell>
        <mxCell id="g-UJCjVUYvoIg5_bGZy7-17" value="Yes" style="edgeLabel;html=1;align=center;verticalAlign=middle;resizable=0;points=[];" vertex="1" connectable="0" parent="g-UJCjVUYvoIg5_bGZy7-16">
          <mxGeometry x="-0.3524" relative="1" as="geometry">
            <mxPoint x="20" y="6" as="offset" />
          </mxGeometry>
        </mxCell>
        <mxCell id="g-UJCjVUYvoIg5_bGZy7-10" value="HandShake&lt;br&gt;Received ?" style="rhombus;whiteSpace=wrap;html=1;rounded=0;" vertex="1" parent="1">
          <mxGeometry x="110" y="130" width="100" height="110" as="geometry" />
        </mxCell>
        <mxCell id="g-UJCjVUYvoIg5_bGZy7-19" value="" style="edgeStyle=orthogonalEdgeStyle;rounded=0;orthogonalLoop=1;jettySize=auto;html=1;" edge="1" parent="1" source="g-UJCjVUYvoIg5_bGZy7-15" target="g-UJCjVUYvoIg5_bGZy7-18">
          <mxGeometry relative="1" as="geometry" />
        </mxCell>
        <mxCell id="g-UJCjVUYvoIg5_bGZy7-15" value="Send Length Byte" style="whiteSpace=wrap;html=1;rounded=0;" vertex="1" parent="1">
          <mxGeometry x="100" y="310" width="120" height="60" as="geometry" />
        </mxCell>
        <mxCell id="g-UJCjVUYvoIg5_bGZy7-18" value="Send Command" style="whiteSpace=wrap;html=1;rounded=0;" vertex="1" parent="1">
          <mxGeometry x="100" y="450" width="120" height="60" as="geometry" />
        </mxCell>
        <mxCell id="g-UJCjVUYvoIg5_bGZy7-21" value="" style="edgeStyle=orthogonalEdgeStyle;rounded=0;orthogonalLoop=1;jettySize=auto;html=1;" edge="1" parent="1" source="g-UJCjVUYvoIg5_bGZy7-20" target="g-UJCjVUYvoIg5_bGZy7-5">
          <mxGeometry relative="1" as="geometry" />
        </mxCell>
        <mxCell id="g-UJCjVUYvoIg5_bGZy7-20" value="Convert the command from string to hexa" style="rounded=0;whiteSpace=wrap;html=1;" vertex="1" parent="1">
          <mxGeometry x="85" y="-110" width="150" height="70" as="geometry" />
        </mxCell>
      </root>
    </mxGraphModel>
  </diagram>
</mxfile>
